<svg width="38" height="38" viewBox="0 0 38 38" fill="none" xmlns="http://www.w3.org/2000/svg">
<path d="M17.982 16.3444C18.281 15.3962 19.4899 15.3675 19.8444 16.2583L19.8744 16.345L20.2778 17.6237C20.3703 17.9169 20.5197 18.1853 20.716 18.4106C20.9123 18.636 21.1509 18.8131 21.4157 18.93L21.5242 18.9739L22.7041 19.4106C23.579 19.7346 23.6055 21.0448 22.7841 21.4289L22.7041 21.4615L21.5242 21.8987C21.2535 21.9988 21.0058 22.1607 20.7978 22.3735C20.5898 22.5862 20.4263 22.8449 20.3183 23.1319L20.2778 23.2489L19.8749 24.5282C19.5759 25.4764 18.367 25.5051 18.013 24.6149L17.982 24.5282L17.5791 23.2495C17.4867 22.9561 17.3373 22.6877 17.141 22.4622C16.9447 22.2368 16.7061 22.0596 16.4412 21.9426L16.3332 21.8987L15.1533 21.462C14.2779 21.138 14.2514 19.8278 15.0733 19.4442L15.1533 19.4106L16.3332 18.9739C16.6038 18.8737 16.8514 18.7118 17.0593 18.499C17.2673 18.2863 17.4307 18.0277 17.5386 17.7407L17.5791 17.6237L17.982 16.3444ZM22.9281 14.4762C23.0216 14.4762 23.1133 14.5046 23.1926 14.5583C23.272 14.6119 23.3359 14.6886 23.377 14.7796L23.401 14.843L23.576 15.3989L24.0895 15.5886C24.1832 15.6231 24.2654 15.687 24.3255 15.7722C24.3857 15.8573 24.4212 15.9599 24.4276 16.067C24.4339 16.1741 24.4107 16.2808 24.361 16.3736C24.3113 16.4664 24.2374 16.5411 24.1484 16.5882L24.0895 16.6143L23.5765 16.8039L23.4015 17.3603C23.3696 17.4619 23.3106 17.5509 23.232 17.6161C23.1534 17.6813 23.0587 17.7197 22.9599 17.7265C22.8611 17.7333 22.7627 17.7081 22.6771 17.6542C22.5915 17.6003 22.5226 17.5201 22.4791 17.4237L22.4551 17.3603L22.2801 16.8044L21.7667 16.6148C21.6729 16.5803 21.5908 16.5164 21.5306 16.4312C21.4704 16.346 21.4349 16.2434 21.4286 16.1363C21.4223 16.0293 21.4454 15.9226 21.4951 15.8298C21.5448 15.737 21.6188 15.6623 21.7077 15.6151L21.7667 15.5891L22.2796 15.3995L22.4546 14.843C22.4883 14.736 22.5521 14.643 22.637 14.5772C22.7219 14.5115 22.8237 14.4761 22.9281 14.4762Z" fill="black"/>
<path d="M22.1654 3.81015C20.8883 1.56701 17.4767 1.56701 16.2019 3.81015L12.0186 11.1455C11.9524 11.2747 11.8591 11.39 11.7444 11.4843C11.6296 11.5786 11.4958 11.6501 11.351 11.6944C11.2062 11.7387 11.0533 11.7549 10.9017 11.742C10.75 11.7292 10.6027 11.6875 10.4686 11.6196C10.3345 11.5517 10.2163 11.4589 10.1213 11.3468C10.0263 11.2347 9.95629 11.1056 9.91559 10.9673C9.87489 10.8291 9.86432 10.6845 9.8845 10.5423C9.90468 10.4001 9.95521 10.2632 10.033 10.1398L14.214 2.8002C16.3418 -0.933401 22.0255 -0.933401 24.1532 2.8002L28.684 10.7564L29.3496 6.99306C29.4064 6.7219 29.5731 6.48225 29.8142 6.32492C30.0554 6.1676 30.3521 6.10497 30.6415 6.15032C30.9308 6.19567 31.1901 6.34543 31.3642 6.56785C31.5383 6.79027 31.6137 7.06786 31.5743 7.34176L30.4462 13.7204C30.4193 13.8718 30.3579 14.0159 30.2663 14.1429C30.1747 14.2699 30.055 14.3766 29.9154 14.4558C29.7758 14.535 29.6197 14.5848 29.4577 14.6017C29.2958 14.6186 29.1319 14.6023 28.9773 14.5538L22.2083 12.4276C21.9351 12.3308 21.7124 12.1381 21.5869 11.8899C21.4614 11.6416 21.4428 11.3572 21.5351 11.0964C21.6274 10.8355 21.8233 10.6185 22.0818 10.4909C22.3402 10.3633 22.6411 10.335 22.9213 10.412L26.581 11.5601L22.1654 3.81015ZM31.2427 17.4327C31.1076 17.4963 30.9874 17.5848 30.8893 17.6929C30.7912 17.801 30.7171 17.9267 30.6714 18.0623C30.6258 18.1979 30.6095 18.3408 30.6235 18.4824C30.6375 18.6241 30.6815 18.7617 30.753 18.887L35.3334 26.924C35.6105 27.41 35.7491 27.9555 35.7357 28.507C35.7222 29.0586 35.5571 29.5974 35.2566 30.0709C34.956 30.5443 34.5302 30.9362 34.0209 31.2083C33.5115 31.4803 32.936 31.6232 32.3505 31.6229H23.0318L25.6198 29.1842C25.8317 28.9849 25.9508 28.7144 25.951 28.4323C25.9512 28.1502 25.8325 27.8795 25.621 27.6799C25.4094 27.4803 25.1224 27.368 24.823 27.3678C24.5236 27.3676 24.2365 27.4795 24.0246 27.6788L19.5119 31.9312C19.4069 32.03 19.3235 32.1473 19.2666 32.2765C19.2098 32.4056 19.1805 32.5441 19.1805 32.6839C19.1805 32.8237 19.2098 32.9622 19.2666 33.0914C19.3235 33.2205 19.4069 33.3378 19.5119 33.4366L24.0246 37.689C24.2365 37.8883 24.5236 38.0002 24.823 38C25.1224 37.9998 25.4094 37.8875 25.621 37.6879C25.8325 37.4883 25.9512 37.2177 25.951 36.9356C25.9508 36.6535 25.8317 36.383 25.6198 36.1836L23.0341 33.7491H32.3528C36.6173 33.7491 39.3384 29.4606 37.3212 25.9184L32.7409 17.8813C32.6021 17.6376 32.3681 17.4544 32.0883 17.3706C31.8086 17.2869 31.5052 17.3091 31.2427 17.4327ZM6.01223 31.6208H13.5394C13.8386 31.6208 14.1256 31.7328 14.3371 31.9322C14.5487 32.1316 14.6676 32.402 14.6676 32.6839C14.6676 32.9659 14.5487 33.2363 14.3371 33.4356C14.1256 33.635 13.8386 33.747 13.5394 33.747H6.01223C1.74774 33.747 -0.975668 29.4585 1.0415 25.9162L5.8791 17.4263L1.486 18.8083C1.34526 18.8525 1.19667 18.87 1.04872 18.86C0.900771 18.85 0.756361 18.8127 0.623734 18.7501C0.491108 18.6875 0.372862 18.6009 0.275748 18.4953C0.178634 18.3896 0.104553 18.267 0.0577369 18.1343C0.0109203 18.0017 -0.00771583 17.8617 0.00289246 17.7223C0.0135008 17.5829 0.0531458 17.4468 0.119564 17.3218C0.185982 17.1968 0.277873 17.0854 0.389989 16.9939C0.502105 16.9024 0.632252 16.8326 0.772998 16.7885L7.54203 14.6623C7.82568 14.5734 8.13518 14.5942 8.40255 14.7202C8.66992 14.8462 8.8733 15.067 8.96803 15.3341L11.2244 21.7127C11.3096 21.9776 11.2818 22.2632 11.147 22.5091C11.0122 22.7549 10.781 22.9416 10.5025 23.0293C10.224 23.1171 9.92014 23.099 9.65552 22.9791C9.39091 22.8591 9.18637 22.6466 9.08537 22.3867L7.75412 18.6276L3.02934 26.9219C2.75221 27.4079 2.61361 27.9533 2.62708 28.5049C2.64055 29.0565 2.80563 29.5953 3.10619 30.0688C3.40675 30.5422 3.8325 30.9341 4.34186 31.2061C4.85121 31.4782 5.42675 31.6211 6.01223 31.6208Z" fill="black"/>
</svg>